<svg width="24" height="24" viewBox="0 0 24 24" fill="none" xmlns="http://www.w3.org/2000/svg">
<path fill-rule="evenodd" clip-rule="evenodd" d="M19.6967 5.76621C19.7928 5.67026 19.869 5.55632 19.921 5.4309C19.9731 5.30548 19.9999 5.17104 20 5.03526C20.0001 4.89947 19.9734 4.765 19.9215 4.63952C19.8697 4.51404 19.7936 4.40001 19.6976 4.30393C19.6017 4.20786 19.4877 4.13163 19.3623 4.07959C19.2369 4.02755 19.1024 4.00072 18.9667 4.00064C18.8309 4.00055 18.6964 4.02721 18.5709 4.0791C18.4455 4.13099 18.3314 4.20708 18.2353 4.30303L11.9999 10.5386L5.76618 4.30303C5.57216 4.109 5.309 4 5.03461 4C4.76021 4 4.49706 4.109 4.30303 4.30303C4.109 4.49706 4 4.76022 4 5.03462C4 5.30902 4.109 5.57218 4.30303 5.76621L10.5385 12L4.30303 18.2338C4.20696 18.3299 4.13075 18.4439 4.07875 18.5694C4.02676 18.695 4 18.8295 4 18.9654C4 19.1012 4.02676 19.2358 4.07875 19.3613C4.13075 19.4868 4.20696 19.6009 4.30303 19.697C4.49706 19.891 4.76021 20 5.03461 20C5.17047 20 5.30501 19.9732 5.43053 19.9212C5.55606 19.8692 5.67011 19.793 5.76618 19.697L11.9999 13.4614L18.2353 19.697C18.4294 19.8908 18.6924 19.9995 18.9667 19.9994C19.2409 19.9992 19.5038 19.8901 19.6976 19.6961C19.8914 19.502 20.0002 19.239 20 18.9647C19.9998 18.6905 19.8907 18.4276 19.6967 18.2338L13.4612 12L19.6967 5.76621Z" fill="black"/>
</svg>
